<svg fill="none" stroke="currentColor" stroke-width="18" stroke-linecap="round" stroke-linejoin="round"
   version="1.1"
   id="svg3900"
   viewBox="0 0 682.66669 682.66669"
   xmlns="http://www.w3.org/2000/svg"><defs
     id="defs3904"><clipPath
       clipPathUnits="userSpaceOnUse"
       id="clipPath3914"><path
         d="M 0,512 H 512 V 0 H 0 Z"
         id="path3912" /></clipPath></defs><g
     id="g3906"
     transform="matrix(1.3333333,0,0,-1.3333333,0,682.66667)"><g
       id="g3908"><g
         id="g3910"
         clip-path="url(#clipPath3914)"><g
           id="g3916"
           transform="translate(37.5,150.3101)"><path
             d="M 0,0 V -16.99 C 0,-22.74 4.66,-27.4 10.4,-27.4 h 18.88"
             id="path3918" /></g><g
           id="g3920"
           transform="translate(37.5,180.29)"><path
             d="m 0,0 v 18.02 c 0,5.74 4.66,10.4 10.4,10.4 h 76.11 176.78"
             id="path3922" /></g><g
           id="g3924"
           transform="translate(300.79,122.9141)"><path
             d="M 0,0 H -119.549"
             id="path3926" /></g><g
           id="g3928"
           transform="translate(476.1504,320.29)"><path
             d="m 0,0 17.819,-75.79 v -79.64"
             id="path3930" /></g><g
           id="g3932"
           transform="translate(340.1299,122.9102)"><path
             d="m 0,0 h -39.34 v 241.02 c 0,12 9.72,21.73 21.73,21.73 H 98.9 c 12.74,0 23.79,-8.77 26.72,-21.17 l 3.53,-14.99"
             id="path3934" /></g><g
           id="g3936"
           transform="translate(352.8965,342.0059)"><path
             d="m 0,0 0.023,-68.615 c 0.003,-6.671 -5.404,-12.08 -12.076,-12.08 h -6.916 c -6.67,0 -12.076,5.407 -12.076,12.076 v 68.615 c 0,6.669 5.406,12.076 12.076,12.076 h 6.893 C -5.408,12.072 -0.002,6.668 0,0 Z"
             id="path3938" /></g><g
           id="g3940"
           transform="translate(442.3223,261.311)"><path
             d="m 0,0 h -52.436 c -6.667,0 -12.072,5.403 -12.076,12.071 l -0.03,68.614 c -0.003,6.672 5.404,12.082 12.076,12.082 h 36.329 c 5.605,0 10.473,-3.856 11.755,-9.311 L 11.756,14.841 C 13.538,7.261 7.787,0 0,0 Z"
             id="path3942" /></g><g
           id="g3944"
           transform="translate(469.8711,190.6997)"><path
             d="M 0,0 H 24.099 V 32.214 H 0 c -8.896,0 -16.107,-7.211 -16.107,-16.107 C -16.107,7.211 -8.896,0 0,0 Z"
             id="path3946" /></g><g
           id="g3948"
           transform="translate(435.7617,164.8672)"><path
             d="m 0,0 h 59.272 c 5.233,0 9.466,-4.233 9.466,-9.466 V -33 c 0,-5.233 -4.233,-9.466 -9.466,-9.466 H 18.849"
             id="path3950" /></g><g
           id="g3952"
           transform="translate(181.2559,122.4009)"><path
             d="m 0,0 c 0,31.615 -25.63,57.245 -57.245,57.245 -31.615,0 -57.245,-25.63 -57.245,-57.245 0,-31.616 25.63,-57.245 57.245,-57.245 C -25.63,-57.245 0,-31.616 0,0 Z"
             id="path3954" /></g><g
           id="g3956"
           transform="translate(151.0186,122.4009)"><path
             d="m 0,0 c 0,14.916 -12.092,27.007 -27.008,27.007 -14.916,0 -27.008,-12.091 -27.008,-27.007 0,-14.916 12.092,-27.008 27.008,-27.008 C -12.092,-27.008 0,-14.916 0,0 Z"
             id="path3958" /></g><g
           id="g3960"
           transform="translate(454.6152,122.4009)"><path
             d="m 0,0 c 0,31.615 -25.63,57.245 -57.245,57.245 -31.615,0 -57.245,-25.63 -57.245,-57.245 0,-31.616 25.63,-57.245 57.245,-57.245 C -25.63,-57.245 0,-31.616 0,0 Z"
             id="path3962" /></g><g
           id="g3964"
           transform="translate(424.3779,122.4009)"><path
             d="m 0,0 c 0,14.916 -12.092,27.007 -27.008,27.007 -14.916,0 -27.008,-12.091 -27.008,-27.007 0,-14.916 12.092,-27.008 27.008,-27.008 C -12.092,-27.008 0,-14.916 0,0 Z"
             id="path3966" /></g><g
           id="g3968"
           transform="translate(328.2227,234.7002)"><path
             d="M 0,0 H 20.234"
             id="path3970" /></g><g
           id="g3972"
           transform="translate(42.9014,208.7085)"><path
             d="m 0,0 -35.401,58.685 36.259,95.16 c 3.538,9.283 12.441,15.418 22.375,15.418 h 136.7 c 7.075,0 13.562,3.934 16.834,10.207 l 25.269,48.459 c 3.271,6.273 9.759,10.207 16.833,10.207 h 93.749 c 7.968,0 14.998,-5.214 17.311,-12.839 3.523,-11.618 -5.17,-23.34 -17.311,-23.34 h -44.266 c -13.614,0 -25.502,-9.21 -28.905,-22.392 L 193.098,0 Z"
             id="path3974" /></g><g
           id="g3976"
           transform="translate(243.0312,355.9858)"><path
             d="M 0,0 -30.271,-117.278 H -184.36 l -20.059,29.134"
             id="path3978" /></g><g
           id="g3980"
           transform="translate(196.7246,307.2788)"><path
             d="M 0,0 -17.699,-68.571"
             id="path3982" /></g><g
           id="g3984"
           transform="translate(144.0801,307.2788)"><path
             d="M 0,0 -17.699,-68.571"
             id="path3986" /></g><g
           id="g3988"
           transform="translate(91.4365,307.2788)"><path
             d="M 0,0 -17.7,-68.571"
             id="path3990" /></g><g
           id="g3992"
           transform="translate(185.7178,179.4692)"><path
             d="M 0,0 H 85.771"
             id="path3994" /></g><g
           id="g3996"
           transform="translate(219.6367,151.1914)"><path
             d="M 0,0 H 51.853"
             id="path3998" /></g></g></g></g></svg>