<svg fill="none" stroke="currentColor" stroke-width="18" stroke-linecap="round" stroke-linejoin="round"
   version="1.1"
   id="svg909"
   viewBox="0 0 682.66669 682.66669"
   xmlns="http://www.w3.org/2000/svg"><defs
     id="defs913"><clipPath
       clipPathUnits="userSpaceOnUse"
       id="clipPath923"><path
         d="M 0,512 H 512 V 0 H 0 Z"
         id="path921" /></clipPath></defs><g
     id="g915"
     transform="matrix(1.3333333,0,0,-1.3333333,0,682.66667)"><g
       id="g917"><g
         id="g919"
         clip-path="url(#clipPath923)"><g
           id="g925"
           transform="translate(322.2666,57.2017)"><path
             d="m 0,0 c 0,-27.449 -22.251,-49.7 -49.7,-49.7 -27.448,0 -49.699,22.251 -49.699,49.7 0,27.448 22.251,49.7 49.699,49.7 C -22.251,49.7 0,27.448 0,0 Z"
             id="path927" /></g><g
           id="g929"
           transform="translate(289.1328,57.2017)"><path
             d="m 0,0 c 0,-9.15 -7.417,-16.567 -16.566,-16.567 -9.15,0 -16.567,7.417 -16.567,16.567 0,9.149 7.417,16.566 16.567,16.566 C -7.417,16.566 0,9.149 0,0 Z"
             id="path931" /></g><g
           id="g933"
           transform="translate(156.5996,65.4849)"><path
             d="m 0,0 c 0,-32.023 -25.96,-57.983 -57.982,-57.983 -32.024,0 -57.985,25.96 -57.985,57.983 0,32.023 25.961,57.983 57.985,57.983 C -25.96,57.983 0,32.023 0,0 Z"
             id="path935" /></g><g
           id="g937"
           transform="translate(115.1836,65.4849)"><path
             d="m 0,0 c 0,-9.149 -7.417,-16.567 -16.566,-16.567 -9.151,0 -16.568,7.418 -16.568,16.567 0,9.149 7.417,16.566 16.568,16.566 C -7.417,16.566 0,9.149 0,0 Z"
             id="path939" /></g><g
           id="g941"
           transform="translate(388.5332,82.0513)"><path
             d="m 0,0 v 198.8 c 0,4.575 -3.708,8.283 -8.283,8.283 H -24.85 c -4.575,0 -8.283,-3.708 -8.283,-8.283 V -41.417 h 140.817 c 4.574,0 8.283,3.709 8.283,8.284 v 16.567 c 0,4.574 -3.709,8.283 -8.283,8.283 H 8.283 C 3.709,-8.283 0,-4.575 0,0 Z"
             id="path943" /></g><g
           id="g945"
           transform="translate(355.4004,239.4346)"><path
             d="M 0,0 H 33.133"
             id="path947" /></g><g
           id="g949"
           transform="translate(355.4004,451.2227)"><path
             d="M 0,0 V 20.06 H -33.134 V -410.588 H 0 V -30"
             id="path951" /></g><g
           id="g953"
           transform="translate(90.333,297.375)"><path
             d="M 0,0 V -107.64 H 33.134 V 58.026 H 0 V 29.762"
             id="path955" /></g><g
           id="g957"
           transform="translate(363.9668,504.4155)"><path
             d="m 0,0 h -50.267 c -4.419,0 -8,-3.582 -8,-8 v -17.133 c 0,-4.419 3.581,-8 8,-8 H 0 c 4.418,0 8,3.581 8,8 V -8 C 8,-3.582 4.418,0 0,0 Z"
             id="path959" /></g><g
           id="g961"
           transform="translate(322.2666,156.6016)"><path
             d="m 0,0 h -129.103 c -2.196,0 -4.303,0.873 -5.856,2.426 l -28.281,28.281 c -1.554,1.554 -3.66,2.426 -5.858,2.426 h -107.416 c -3.137,0 -6.006,-1.772 -7.409,-4.579 l -29.97,-59.938 c -0.574,-1.151 -0.874,-2.419 -0.874,-3.705 v -56.028 c 0,-4.574 3.709,-8.283 8.284,-8.283 h 25.441"
             id="path963" /></g><g
           id="g965"
           transform="translate(156.5996,57.2017)"><path
             d="M 0,0 H 66.268"
             id="path967" /></g><g
           id="g969"
           transform="translate(156.5996,90.335)"><path
             d="M 0,0 H 78.93"
             id="path971" /></g><g
           id="g973"
           transform="translate(7.5,90.335)"><path
             d="M 0,0 H 33.725"
             id="path975" /></g><g
           id="g977"
           transform="translate(123.4668,156.6016)"><path
             d="M 0,0 H -16.566"
             id="path979" /></g><g
           id="g981"
           transform="translate(322.2666,206.2153)"><path
             d="m 0,0 -71.11,140.839 c -2.943,5.148 -8.455,8.347 -14.384,8.347 H -248.5 v 33.133 h 163.006 c 17.789,0 34.323,-9.595 43.151,-25.04 L 0,66.61"
             id="path983" /></g><g
           id="g985"
           transform="translate(289.1328,156.6016)"><path
             d="M 0,0 -16.566,66.267"
             id="path987" /></g><g
           id="g989"
           transform="translate(156.5996,189.7349)"><path
             d="m 0,0 v 57.983 c 0,4.575 3.709,8.284 8.283,8.284 h 33.134 c 4.575,0 8.283,-3.709 8.283,-8.284 v -91.116"
             id="path991" /></g></g></g></g></svg>