<svg fill="none" stroke="currentColor" stroke-width="18" stroke-linecap="round" stroke-linejoin="round"
   version="1.1"
   id="svg123"
   viewBox="0 0 682.66669 682.66669"
   xmlns="http://www.w3.org/2000/svg"><defs
     id="defs127"><clipPath
       clipPathUnits="userSpaceOnUse"
       id="clipPath137"><path
         d="M 0,512 H 512 V 0 H 0 Z"
         id="path135" /></clipPath></defs><g
     id="g129"
     transform="matrix(1.3333333,0,0,-1.3333333,0,682.66667)"><g
       id="g131"><g
         id="g133"
         clip-path="url(#clipPath137)"><g
           id="g139"
           transform="translate(391.7236,321.2144)"><path
             d="m 0,0 c 4.808,-4.809 4.808,-12.604 0,-17.413 -4.287,-4.287 -10.949,-4.752 -15.751,-1.395 l 10e-4,0.001 -18.089,10.739 c -3.759,2.232 -8.451,2.167 -12.146,-0.168 l -95.135,-60.097 2.189,-34.759 c 0.176,-2.786 -1.139,-5.456 -3.455,-7.016 l -80.441,-54.174 c -2.454,-1.654 -1.284,-5.486 1.675,-5.486 H -35.11 c 3.018,0 5.324,2.694 4.859,5.676 l -3.993,25.581 96.799,96.8 c 9.923,9.922 9.923,26.01 0,35.933 L -16.62,73.398 c -2.517,2.517 -6.827,1.078 -7.327,-2.446 l -3.265,-22.993 c -1.651,-11.623 2.298,-23.342 10.647,-31.595 z"
             id="path141" /></g><g
           id="g143"
           transform="translate(375.9727,302.4067)"><path
             d="m 0,0 c -0.584,0.408 -1.141,0.873 -1.662,1.395 -4.809,4.808 -4.809,12.604 0,17.413 4.808,4.808 12.604,4.808 17.413,0"
             id="path145" /></g><g
           id="g147"
           transform="translate(337.6616,195.7168)"><path
             d="M 0,0 19.818,-13.013"
             id="path149" /></g><g
           id="g151"
           transform="translate(250.6035,252.8818)"><path
             d="M 0,0 57.801,-37.954"
             id="path153" /></g><g
           id="g155"
           transform="translate(436.8501,262.0742)"><path
             d="M 0,0 -111.522,38.011"
             id="path157" /></g><g
           id="g159"
           transform="translate(407.9253,188.5859)"><path
             d="m 0,0 c 0,-13.314 10.793,-24.107 24.107,-24.107 13.314,0 24.107,10.793 24.107,24.107 0,13.314 -10.793,24.107 -24.107,24.107 C 10.793,24.107 0,13.314 0,0 Z"
             id="path161" /></g><g
           id="g163"
           transform="translate(432.0327,188.5859)"><path
             d="M 0,0 -22.203,46.425"
             id="path165" /></g><g
           id="g167"
           transform="translate(455.7734,192.772)"><path
             d="M 0,0 22.39,3.948"
             id="path169" /></g><g
           id="g171"
           transform="translate(435.3877,212.4585)"><path
             d="M 0,0 3.164,22.514"
             id="path173" /></g><g
           id="g175"
           transform="translate(410.3652,199.1538)"><path
             d="M 0,0 -20.434,9.966"
             id="path177" /></g><g
           id="g179"
           transform="translate(415.2861,171.2446)"><path
             d="M 0,0 -15.793,-16.354"
             id="path181" /></g><g
           id="g183"
           transform="translate(443.3501,167.3008)"><path
             d="M 0,0 10.673,-20.074"
             id="path185" /></g><g
           id="g187"
           transform="translate(79.749,165.416)"><path
             d="M 0,0 -0.224,-23.67"
             id="path189" /></g><g
           id="g191"
           transform="translate(66.5254,207.4595)"><path
             d="M 0,0 -13.732,19.281"
             id="path193" /></g><g
           id="g195"
           transform="translate(57.8691,181.6357)"><path
             d="M 0,0 -22.586,-7.104"
             id="path197" /></g><g
           id="g199"
           transform="translate(121.2412,319.5918)"><path
             d="M 0,0 135.18,-63.035"
             id="path201" /></g><g
           id="g203"
           transform="translate(354.9839,314.3687)"><path
             d="m 0,0 c -1.792,13.959 -11.295,25.743 -24.61,30.407 l -56.353,19.737 c -8.961,3.139 -18.714,3.374 -27.763,0.496 -17.855,-5.678 -32.024,-19.333 -38.375,-36.918 -2.916,-8.076 -12.133,-11.907 -19.914,-8.279 l -38.236,17.83 c -2.433,1.135 -3.319,3.981 -2.279,6.456 0.512,1.219 -0.026,2.635 -1.235,3.198 l -33.904,15.81 c -10.367,4.834 -22.237,5.316 -32.962,1.339 l -25.557,-9.477 c -1.739,-0.645 -1.838,-3.068 -0.157,-3.852 l 35.882,-16.732"
             id="path205" /></g><g
           id="g207"
           transform="translate(256.4209,256.5566)"><path
             d="m 0,0 89.317,56.422 c 2.791,1.763 6.15,2.227 9.246,1.39"
             id="path209" /></g><g
           id="g211"
           transform="translate(294.4194,309.3872)"><path
             d="M 0,0 -64.252,-40.588"
             id="path213" /></g><g
           id="g215"
           transform="translate(341.0923,338.8706)"><path
             d="M 0,0 -17.082,-10.791"
             id="path217" /></g><g
           id="g219"
           transform="translate(211.9258,336.9292)"><path
             d="M 0,0 72.543,-33.828"
             id="path221" /></g><g
           id="g223"
           transform="translate(252.4912,222.9121)"><path
             d="m 0,0 0.302,-4.79 -2.19,34.76 5.818,3.675 -55.866,26.05 V 11.629"
             id="path225" /></g><g
           id="g227"
           transform="translate(252.4912,222.9121)"><path
             d="m 0,0 c -4.521,12.053 -16.144,20.634 -29.776,20.634 -17.56,0 -31.795,-14.235 -31.795,-31.795 0,-12.35 7.047,-23.048 17.334,-28.313"
             id="path229" /></g><g
           id="g231"
           transform="translate(200.5552,234.541)"><path
             d="m 0,0 v 10.339 l -126.583,-33.918 c -12.358,-3.312 -19.692,-16.014 -16.38,-28.372 3.311,-12.357 16.013,-19.691 28.371,-16.38 l 109.424,29.32"
             id="path233" /></g><g
           id="g235"
           transform="translate(81.1431,188.9009)"><path
             d="M 0,0 85.872,23.01"
             id="path237" /></g><g
           id="g239"
           transform="translate(168.5034,297.5532)"><path
             d="m 0,0 -44.513,-44.513 c -1.739,-1.739 -1.739,-4.558 0,-6.296"
             id="path241" /></g><g
           id="g243"
           transform="translate(135.5283,235.2061)"><path
             d="M 0,0 C 1.739,-1.739 4.558,-1.739 6.296,0 L 57.3,51.004"
             id="path245" /></g><g
           id="g247"
           transform="translate(148.7534,288.1216)"><path
             d="M 0,0 28.152,-28.152"
             id="path249" /></g><g
           id="g251"
           transform="translate(134.6768,274.0454)"><path
             d="M 0,0 28.153,-28.153"
             id="path253" /></g><g
           id="g255"
           transform="translate(125.3345,176.7598)"><path
             d="m 0,0 c -5.242,-20.162 -23.565,-35.048 -45.367,-35.048 -25.888,0 -46.874,20.986 -46.874,46.874 0,25.888 20.986,46.875 46.874,46.875 13.055,0 24.86,-5.342 33.359,-13.954"
             id="path257" /></g><g
           id="g259"
           transform="translate(140.2959,228.7334)"><path
             d="m 0,0 c -12.99,19.481 -35.157,32.32 -60.329,32.32 -40.022,0 -72.467,-32.445 -72.467,-72.467 0,-40.023 32.445,-72.468 72.467,-72.468 38.474,0 69.928,29.986 72.307,67.86"
             id="path261" /></g><g
           id="g263"
           transform="translate(432.0327,141.7119)"><path
             d="m 0,0 c -25.888,0 -46.875,20.986 -46.875,46.874 0,25.888 20.987,46.875 46.875,46.875 25.888,0 46.874,-20.987 46.874,-46.875 C 46.874,20.986 25.888,0 0,0 Z M -72.374,43.171 C -70.446,4.869 -38.781,-25.593 0,-25.593 c 40.022,0 72.467,32.445 72.467,72.467 0,38.781 -30.462,70.446 -68.764,72.374"
             id="path265" /></g></g></g></g></svg>