<svg fill="currentColor" id="Capa_1" viewBox="0 0 512 512" xmlns="http://www.w3.org/2000/svg"><path d="m154.068 309.968c-24.142-24.143-63.425-24.143-87.566 0-24.142 24.142-24.142 63.424 0 87.566 12.071 12.071 27.927 18.107 43.783 18.107s31.712-6.036 43.783-18.107c24.142-24.142 24.142-63.424 0-87.566zm-76.96 76.96c-18.293-18.294-18.293-48.06 0-66.354 9.147-9.147 21.162-13.72 33.177-13.72s24.03 4.573 33.177 13.72c18.293 18.294 18.293 48.06 0 66.354-18.295 18.294-48.06 18.294-66.354 0z"/><path d="m136.894 327.142c-14.672-14.673-38.547-14.673-53.219 0-14.672 14.672-14.672 38.546 0 53.219 7.336 7.336 16.973 11.004 26.609 11.004s19.273-3.668 26.609-11.004c14.673-14.673 14.673-38.547.001-53.219zm-10.606 42.612c-8.824 8.824-23.182 8.824-32.006 0s-8.824-23.182 0-32.006c4.412-4.412 10.208-6.618 16.003-6.618s11.591 2.206 16.003 6.618c8.823 8.824 8.823 23.182 0 32.006z"/><path d="m468.595 369.607c3.778-1.697 5.466-6.137 3.769-9.915-7.889-17.558-25.421-28.904-44.666-28.904-26.988 0-48.944 21.957-48.944 48.945s21.956 48.945 48.944 48.945c18.596 0 35.351-10.321 43.728-26.935 1.864-3.699.378-8.208-3.32-10.073s-8.209-.379-10.074 3.32c-5.812 11.527-17.435 18.688-30.333 18.688-18.717 0-33.944-15.228-33.944-33.945s15.228-33.945 33.944-33.945c13.35 0 25.511 7.871 30.982 20.051 1.697 3.778 6.133 5.464 9.914 3.768z"/><path d="m427.697 353.562c-14.431 0-26.171 11.74-26.171 26.171s11.74 26.171 26.171 26.171c14.432 0 26.172-11.74 26.172-26.171s-11.74-26.171-26.172-26.171zm0 37.343c-6.159 0-11.171-5.011-11.171-11.171s5.012-11.171 11.171-11.171c6.16 0 11.172 5.011 11.172 11.171s-5.012 11.171-11.172 11.171z"/><path d="m504.5 449.036h-28.882c21.962-15.233 36.382-40.61 36.382-69.303 0-25-10.949-47.481-28.291-62.933v-77.763c0-10.945-8.24-20.402-19.167-21.996-.088-.013-.176-.024-.265-.034l-46.763-5.136v-12.871c0-4.142-3.357-7.5-7.5-7.5s-7.5 3.358-7.5 7.5v11.224l-20.705-2.274v-58.775c0-1.378 1.121-2.5 2.5-2.5h15.705c1.379 0 2.5 1.122 2.5 2.5v13.825c0 4.142 3.357 7.5 7.5 7.5s7.5-3.358 7.5-7.5v-13.825c0-9.528-7.658-17.287-17.14-17.482v-44.028l9.386-7.04c3.313-2.485 3.985-7.187 1.5-10.5-2.486-3.315-7.188-3.985-10.5-1.5l-12.386 9.29c-1.889 1.417-3 3.64-3 6v47.76h-1.065c-9.649 0-17.5 7.851-17.5 17.5v57.127l-79.083-8.686-32.634-106.695h.796c9.65 0 17.5-7.851 17.5-17.5v-7.957c0-9.649-7.851-17.5-17.5-17.5h-207.733c-9.649 0-17.5 7.851-17.5 17.5v7.957c0 9.649 7.851 17.5 17.5 17.5h2.335v142.108c-11.983 5.747-23.167 13.278-33.188 22.477-2.562 2.352-4.073 5.7-4.148 9.187-.075 3.509 1.305 6.945 3.787 9.426l8.505 8.505-5.172 5.172c-5.023 5.023-5.271 13.041-.743 18.36-2.864 5.457-5.24 11.193-7.072 17.079-6.963.557-12.459 6.403-12.459 13.508v34.017c0 7.104 5.495 12.949 12.46 13.508 1.832 5.886 4.207 11.621 7.072 17.079-4.528 5.319-4.28 13.337.743 18.36l24.054 24.054c5.023 5.022 13.041 5.271 18.36.743 3.225 1.693 6.556 3.192 9.949 4.532h-65.138c-4.142 0-7.5 3.358-7.5 7.5s3.358 7.5 7.5 7.5h497c4.143 0 7.5-3.358 7.5-7.5s-3.357-7.5-7.5-7.5zm-215.001-236.135 172.986 19c3.557.573 6.224 3.622 6.224 7.137v27.656h-160.903c-10.095 0-18.307-8.212-18.307-18.307zm-17.637-15.869h-89.529c-4.142 0-7.5 3.358-7.5 7.5s3.358 7.5 7.5 7.5h92.166v36.355c0 18.365 14.941 33.307 33.307 33.307h160.903v24.422c-12.148-6.795-26.131-10.686-41.012-10.686-46.48 0-84.294 37.811-84.302 84.29h-99.925c3.454-19.584 2.617-39.817-2.519-59.062-6.142-23.012-18.338-44.125-35.271-61.059-25-25-58.23-39.16-93.568-39.872-16.068-.317-31.8 2.157-46.622 7.185v-14.882h81.51c4.142 0 7.5-3.358 7.5-7.5s-3.358-7.5-7.5-7.5h-17.077v-106.109h109.483zm-206.371 0v-106.111h49.433v106.111zm-17.336-121.111c-1.378 0-2.5-1.122-2.5-2.5v-7.957c0-1.378 1.122-2.5 2.5-2.5h207.733c1.378 0 2.5 1.122 2.5 2.5v7.957c0 1.378-1.122 2.5-2.5 2.5zm63.656 158.805c31.445.633 61.016 13.233 83.263 35.481 15.07 15.07 25.923 33.854 31.385 54.32 4.801 17.989 5.393 36.951 1.762 55.194h-11.06c2.115-2.391 3.408-5.525 3.408-8.961v-34.017c0-7.104-5.495-12.949-12.46-13.508-1.832-5.885-4.207-11.622-7.072-17.079 4.528-5.319 4.28-13.337-.743-18.36l-24.054-24.054c-5.024-5.023-13.042-5.271-18.36-.743-5.457-2.864-11.193-5.24-17.079-7.072-.558-6.964-6.404-12.46-13.509-12.46h-34.016c-7.104 0-12.949 5.495-13.508 12.46-5.886 1.832-11.621 4.207-17.079 7.072-5.318-4.527-13.335-4.281-18.36.743l-8.275 8.275-6.952-6.952c22.817-20.197 52.095-30.945 82.709-30.339zm14.11 214.31h-31.272c-.567-5.399-4.282-9.933-9.601-11.531-5.583-1.677-11.016-3.927-16.149-6.687-4.888-2.63-10.719-2.049-14.935 1.365l-22.113-22.113c3.416-4.216 3.995-10.046 1.366-14.934-2.76-5.134-5.01-10.567-6.687-16.15-1.598-5.318-6.131-9.033-11.531-9.6v-31.272c5.399-.567 9.933-4.282 11.53-9.601 1.677-5.583 3.927-11.016 6.688-16.149 2.629-4.889 2.049-10.718-1.366-14.934l22.113-22.113c4.217 3.416 10.047 3.994 14.934 1.366 5.134-2.76 10.567-5.01 16.15-6.687 5.318-1.598 9.033-6.131 9.6-11.531h31.272c.567 5.399 4.282 9.933 9.601 11.53 5.583 1.677 11.016 3.927 16.149 6.688 4.888 2.629 10.717 2.049 14.934-1.366l22.113 22.113c-3.415 4.217-3.994 10.047-1.366 14.934 2.76 5.133 5.01 10.567 6.687 16.149 1.598 5.319 6.131 9.033 11.531 9.601v31.272c-5.399.567-9.933 4.282-11.531 9.601-1.677 5.583-3.927 11.016-6.687 16.149-2.628 4.888-2.049 10.717 1.366 14.934l-22.113 22.113c-4.216-3.414-10.046-3.995-14.934-1.366-5.133 2.76-10.567 5.01-16.149 6.687-5.318 1.599-9.033 6.132-9.6 11.532zm22.011 0c3.393-1.34 6.724-2.839 9.949-4.532 5.319 4.529 13.338 4.28 18.36-.743l24.054-24.054c5.023-5.023 5.271-13.042.743-18.36 1.136-2.164 2.172-4.383 3.151-6.626h140.568c4.043 22.43 16.975 41.799 35.021 54.315zm210.464-69.303c0-38.214 31.089-69.303 69.302-69.303 38.214 0 69.303 31.089 69.303 69.303 0 38.213-31.089 69.302-69.303 69.302-38.214.001-69.302-31.088-69.302-69.302z"/><path d="m270.645 367.014c4.143 0 7.5-3.358 7.5-7.5v-37.159c0-4.142-3.357-7.5-7.5-7.5s-7.5 3.358-7.5 7.5v37.159c0 4.142 3.357 7.5 7.5 7.5z"/><path d="m296.966 367.014c4.143 0 7.5-3.358 7.5-7.5v-37.159c0-4.142-3.357-7.5-7.5-7.5s-7.5 3.358-7.5 7.5v37.159c0 4.142 3.357 7.5 7.5 7.5z"/><path d="m323.287 367.014c4.143 0 7.5-3.358 7.5-7.5v-37.159c0-4.142-3.357-7.5-7.5-7.5s-7.5 3.358-7.5 7.5v37.159c0 4.142 3.358 7.5 7.5 7.5z"/></svg>