<svg fill="currentColor" viewBox="0 -86 512 512" xmlns="http://www.w3.org/2000/svg"><path d="m512 254.605469c0-28.773438-21.449219-52.648438-49.195312-56.496094 0-.011719 0-.023437 0-.039063v-53.28125c0-1.269531-.320313-2.515624-.933594-3.625l-57.890625-104.8125-5.550781-10.0625c-8.945313-16.214843-26.011719-26.289062-44.539063-26.289062h-72.40625c-4.140625 0-7.5 3.359375-7.5 7.5s3.359375 7.5 7.5 7.5h72.40625c13.0625 0 25.097656 7.101562 31.40625 18.535156l.476563.867188c-8.785157 3.730468-14.964844 12.445312-14.964844 22.574218v62.210938c0 13.515625 10.996094 24.507812 24.507812 24.507812h50.820313l1.667969 3.023438v51.351562c0 42.183594-34.308594 76.503907-76.484376 76.503907-4.140624 0-7.5 3.355469-7.5 7.5 0 4.140625 3.359376 7.5 7.5 7.5 12.679688 0 24.765626-2.597657 35.753907-7.28125-.480469 2.710937-.730469 5.484375-.730469 8.308593 0 27.003907 21.964844 48.972657 48.960938 48.972657 27.003906 0 48.972656-21.96875 48.972656-48.972657 0-7.636718-1.753906-15.011718-5.050782-21.671874 3.210938-.367188 6.195313-1.785157 8.53125-4.101563 2.734376-2.707031 4.242188-6.339844 4.242188-10.222656zm-116.683594-125.910157c-5.242187 0-9.503906-4.261718-9.503906-9.503906v-62.214844c0-4.488281 3.128906-8.261718 7.320312-9.25l6.734376 12.191407 37.984374 68.777343zm66.253906 84.382813c19.863282 3.164063 35.148438 20.289063 35.425782 40.957031h-53.347656c9.089843-11.726562 15.394531-25.710937 17.921874-40.957031zm-6.265624 111.5c-18.726563 0-33.960938-15.238281-33.960938-33.972656 0-7.875 2.746094-15.503907 7.742188-21.570313h22.433593c-10.277343 1.800782-18.117187 10.785156-18.117187 21.570313 0 12.082031 9.828125 21.90625 21.90625 21.90625s21.90625-9.828125 21.90625-21.90625c0-10.785157-7.835938-19.769531-18.113282-21.570313h22.441407c5.003906 6.0625 7.734375 13.613282 7.734375 21.570313 0 18.734375-15.238282 33.972656-33.972656 33.972656zm.003906-40.878906c3.808594 0 6.90625 3.101562 6.90625 6.90625 0 3.808593-3.097656 6.90625-6.90625 6.90625-3.804688 0-6.90625-3.097657-6.90625-6.90625 0-3.804688 3.101562-6.90625 6.90625-6.90625zm0 0"/><path d="m334.40625 274.574219h-197.710938v-19.675781c0-37.6875-30.660156-68.347657-68.347656-68.347657-11.625 0-22.578125 2.925781-32.175781 8.066407v-105.140626c0-41.066406 33.410156-74.472656 74.476563-74.472656h134.078124c4.144532 0 7.5-3.359375 7.5-7.5 0-4.144531-3.359374-7.49999975-7.5-7.49999975h-134.078124c-49.339844 0-89.476563 40.13671875-89.476563 89.47265575v116.035157c-13.03125 12.453125-21.171875 29.980469-21.171875 49.386719v19.496093c0 8.371094 6.808594 15.183594 15.179688 15.183594l4.234374-.148437c-.007812.394531-.03125.785156-.03125 1.179687 0 27 21.964844 48.96875 48.964844 48.96875 27.003906 0 48.972656-21.96875 48.972656-48.96875 0-.34375-.019531-.6875-.027343-1.03125h217.113281c4.144531 0 7.5-3.359375 7.5-7.5 0-4.144531-3.359375-7.503906-7.5-7.503906zm-319.40625-.179688v-19.496093c0-29.417969 23.933594-53.347657 53.347656-53.347657 29.417969 0 53.347656 23.929688 53.347656 53.347657v19.675781h-106.515624c-.097657 0-.179688-.078125-.179688-.179688zm60.253906 16.210938c0 3.8125-3.097656 6.914062-6.910156 6.914062-3.804688 0-6.898438-3.101562-6.898438-6.914062 0-.347657.027344-.691407.078126-1.027344h13.648437c.054687.335937.082031.679687.082031 1.027344zm27.0625 0c0 18.734375-15.238281 33.972656-33.972656 33.972656-18.726562 0-33.960938-15.238281-33.960938-33.972656 0-.34375.015626-.683594.027344-1.027344h12.074219c-.015625.34375-.042969.683594-.042969 1.027344 0 12.082031 9.824219 21.914062 21.902344 21.914062 12.082031 0 21.910156-9.832031 21.910156-21.914062 0-.34375-.023437-.683594-.039062-1.027344h12.074218c.011719.34375.027344.683594.027344 1.027344zm0 0"/><path d="m328.023438 32.46875h-203.1875c-15.027344 0-27.25 12.226562-27.25 27.253906v20.105469c0 4.140625 3.355468 7.5 7.5 7.5 4.140624 0 7.5-3.359375 7.5-7.5v-20.105469c0-6.757812 5.492187-12.25 12.25-12.25h90.882812v198.871094h-40.257812c-1.714844 0-3.113282-1.359375-3.1875-3.097656-1.035157-24.230469-9.921876-44.875-26.414063-61.367188-9.308594-9.308594-20.070313-16.789062-31.984375-22.234375-.785156-.355469-1.289062-1.160156-1.289062-2.046875v-42.242187c0-4.140625-3.359376-7.5-7.5-7.5-4.144532 0-7.5 3.359375-7.5 7.5v42.242187c0 6.742188 3.945312 12.902344 10.054687 15.691406 10.285156 4.699219 19.574219 11.15625 27.613281 19.195313 13.945313 13.945313 21.152344 30.757813 22.03125 51.398437.417969 9.792969 8.402344 17.460938 18.175782 17.460938h152.5625c15.03125 0 27.253906-12.226562 27.253906-27.253906v-174.367188c0-15.03125-12.222656-27.253906-27.253906-27.253906zm-97.300782 213.875v-63.351562h53.03125v63.351562zm65.265625-81.976562c0 2-1.625 3.625-3.621093 3.625h-61.644532v-10.816407h61.644532c1.996093 0 3.621093 1.625 3.621093 3.621094zm44.289063 69.722656c0 6.757812-5.496094 12.253906-12.253906 12.253906h-29.265626v-64.503906c7.125-2.617188 12.234376-9.449219 12.234376-17.472656v-3.566407c0-10.269531-8.355469-18.625-18.625-18.625h-61.644532v-94.707031h97.300782c6.757812 0 12.253906 5.496094 12.253906 12.253906zm0 0"/><path d="m414.441406 173.816406c4.144532 0 7.5-3.359375 7.5-7.5s-3.359375-7.5-7.5-7.5h-31.894531c-4.144531 0-7.5 3.359375-7.5 7.5s3.359375 7.5 7.5 7.5zm0 0"/></svg>